<?xml version="1.0" encoding="UTF-8" standalone="no"?>
<!-- Created with Inkscape (http://www.inkscape.org/) -->

<svg
   xmlns:dc="http://purl.org/dc/elements/1.1/"
   xmlns:cc="http://creativecommons.org/ns#"
   xmlns:rdf="http://www.w3.org/1999/02/22-rdf-syntax-ns#"
   xmlns:svg="http://www.w3.org/2000/svg"
   xmlns="http://www.w3.org/2000/svg"
   xmlns:sodipodi="http://sodipodi.sourceforge.net/DTD/sodipodi-0.dtd"
   xmlns:inkscape="http://www.inkscape.org/namespaces/inkscape"
   width="64px"
   height="64px"
   id="svg2"
   version="1.1"
   inkscape:version="0.47 r22583"
   sodipodi:docname="mqme.svg"
   inkscape:export-filename="/home/dawi/git_repo/mina-quero/tools/mqme/assets/images/mqme.png"
   inkscape:export-xdpi="87"
   inkscape:export-ydpi="87">
  <defs
     id="defs4">
    <inkscape:perspective
       sodipodi:type="inkscape:persp3d"
       inkscape:vp_x="0 : 526.18109 : 1"
       inkscape:vp_y="0 : 1000 : 0"
       inkscape:vp_z="744.09448 : 526.18109 : 1"
       inkscape:persp3d-origin="372.04724 : 350.78739 : 1"
       id="perspective10" />
    <inkscape:perspective
       id="perspective2840"
       inkscape:persp3d-origin="0.5 : 0.33333333 : 1"
       inkscape:vp_z="1 : 0.5 : 1"
       inkscape:vp_y="0 : 1000 : 0"
       inkscape:vp_x="0 : 0.5 : 1"
       sodipodi:type="inkscape:persp3d" />
  </defs>
  <sodipodi:namedview
     id="base"
     pagecolor="#ffffff"
     bordercolor="#666666"
     borderopacity="1.0"
     inkscape:pageopacity="0.0"
     inkscape:pageshadow="2"
     inkscape:zoom="7.9195959"
     inkscape:cx="41.463626"
     inkscape:cy="32.831938"
     inkscape:document-units="px"
     inkscape:current-layer="layer1"
     showgrid="true"
     inkscape:window-width="1388"
     inkscape:window-height="882"
     inkscape:window-x="-3"
     inkscape:window-y="-3"
     inkscape:window-maximized="1">
    <inkscape:grid
       type="xygrid"
       id="grid2822" />
  </sodipodi:namedview>
  <metadata
     id="metadata7">
    <rdf:RDF>
      <cc:Work
         rdf:about="">
        <dc:format>image/svg+xml</dc:format>
        <dc:type
           rdf:resource="http://purl.org/dc/dcmitype/StillImage" />
        <dc:title></dc:title>
      </cc:Work>
    </rdf:RDF>
  </metadata>
  <g
     inkscape:label="Calque 1"
     inkscape:groupmode="layer"
     id="layer1">
    <path
       style="fill:#397edb;fill-opacity:1;stroke:#000000;stroke-width:0.27268937;stroke-linecap:butt;stroke-linejoin:miter;stroke-miterlimit:4;stroke-opacity:1;stroke-dasharray:none"
       d="m 5.113208,4.807018 c 2.7169811,-2.7368421 49.811321,0 49.811321,0 0,0 7.245283,52 4.528302,55.649123 -1.768405,2.375108 -54.339623,0 -54.339623,0 0,0 -2.2062418,-53.4267537 0,-55.649123 z"
       id="path2856"
       sodipodi:nodetypes="czzcz" />
    <path
       style="fill:#c0cfe4;fill-opacity:1;stroke:#000000;stroke-width:0.90896451px;stroke-linecap:butt;stroke-linejoin:miter;stroke-opacity:1"
       d="m 7.8301891,29.438597 4.5283019,0 0,-9.122807 4.528302,0 0,4.561403 4.528302,0 0,-4.561403 4.528302,0 0,9.122807 4.528302,0 0,-22.8070176 -4.528302,0 0,4.5614036 -4.528302,0 0,4.561403 -4.528302,0 0,-4.561403 -4.528302,0 0,-4.5614036 -4.5283019,0 0,22.8070176 z"
       id="path2826" />
    <path
       style="fill:#c0cfe4;fill-opacity:1;stroke:#000000;stroke-width:0.90896451px;stroke-linecap:butt;stroke-linejoin:miter;stroke-opacity:1"
       d="m 35,6.6315794 0,22.8070176 18.113208,0 0,-4.561404 -4.528302,0 4.528302,-4.561403 0,-13.6842106 -18.113208,0 z"
       id="path2828"
       sodipodi:nodetypes="cccccccc" />
    <path
       style="fill:none;stroke:#000000;stroke-width:0.90896451px;stroke-linecap:butt;stroke-linejoin:miter;stroke-opacity:1"
       d="m 39.528302,11.192983 9.056604,0 0,9.122807 -4.528302,4.561403 -4.528302,0 0,-13.68421 z"
       id="path2830" />
    <path
       style="fill:#c0cfe4;fill-opacity:1;stroke:#000000;stroke-width:0.90896451px;stroke-linecap:butt;stroke-linejoin:miter;stroke-opacity:1"
       d="m 7.8301891,56.807018 4.5283019,0 0,-9.122807 4.528302,0 0,4.561403 4.528302,0 0,-4.561403 4.528302,0 0,9.122807 4.528302,0 0,-22.807018 -4.528302,0 0,4.561404 -4.528302,0 0,4.561403 -4.528302,0 0,-4.561403 -4.528302,0 0,-4.561404 -4.5283019,0 0,22.807018 z"
       id="path2826-5" />
    <path
       style="fill:#c0cfe4;fill-opacity:1;stroke:#000000;stroke-width:0.90896451px;stroke-linecap:butt;stroke-linejoin:miter;stroke-opacity:1"
       d="M 53.113208,34 35,34 l 0,22.807018 18.113208,0 0,-4.561404 -13.584906,0 0,-4.561403 9.056604,0 0,-4.561404 -9.056604,0 0,-4.561403 13.584906,0 0,-4.561404 z"
       id="path2854" />
    <path
       style="fill:none;stroke:#000000;stroke-width:0.90896451px;stroke-linecap:butt;stroke-linejoin:miter;stroke-opacity:1"
       d="m 39.553022,11.144346 9.031884,0.04864"
       id="path3630" />
    <path
       style="fill:none;stroke:#000000;stroke-width:0.90896451px;stroke-linecap:butt;stroke-linejoin:miter;stroke-opacity:1"
       d="m 48.584906,20.31579 -4.528302,4.561403"
       id="path3632" />
    <path
       style="fill:#000308;fill-opacity:1;stroke:#000000;stroke-width:0.90896451px;stroke-linecap:butt;stroke-linejoin:miter;stroke-opacity:1"
       d="m 39.324309,24.852293 0.203993,-13.65931"
       id="path3634" />
    <path
       style="fill:#000308;fill-opacity:1;stroke:#000000;stroke-width:0.90896451px;stroke-linecap:butt;stroke-linejoin:miter;stroke-opacity:1"
       d="m 39.528302,11.192983 9.056604,0 0,9.122807 -4.528302,4.561403 -4.528302,0 0,-13.68421 z"
       id="path3636" />
  </g>
</svg>
